<svg xmlns="http://www.w3.org/2000/svg" version="1.1" xmlns:xlink="http://www.w3.org/1999/xlink" width="16" height="16" x="0" y="0" viewBox="0 0 24 24" style="enable-background:new 0 0 512 512" xml:space="preserve" class=""><g><path fill="#000000" fill-rule="evenodd" d="M12.75 4c0 .69.56 1.25 1.25 1.25h2.982l-3.866 3.866a1.25 1.25 0 0 0 1.768 1.768l3.866-3.866V10a1.25 1.25 0 1 0 2.5 0V4c0-.69-.56-1.25-1.25-1.25h-6c-.69 0-1.25.56-1.25 1.25zm-7.5 10a1.25 1.25 0 1 0-2.5 0v6c0 .69.56 1.25 1.25 1.25h6a1.25 1.25 0 1 0 0-2.5H7.018l3.866-3.866a1.25 1.25 0 0 0-1.768-1.768L5.25 16.982z" clip-rule="evenodd" opacity="1" data-original="#000000" class=""></path></g></svg>